<svg id="Layer_1" data-name="Layer 1" xmlns="http://www.w3.org/2000/svg" viewBox="0 0 1118.4 517.2"><title>navicon</title><path d="M163.7,432.6,0,258.7l163.7-174,32.9,34.9L68.3,255.7v5L196.6,397.6Z" style="fill:#fff"/><path d="M329.8,517.2l-41.5-20.1L486.7,0l42.1,20.1Z" style="fill:#fff"/><path d="M856.9,418H669.1c-49.7,0-83.1-45.1-83.1-96.4,0-46.7,34-88.7,82.5-89.4H794.2V199.5c0-35-13.1-46.7-45.8-46.7h-114V99.2H760.1c44.5,0,79.9,42.8,79.9,94.9l-.5,172.4h17.4ZM794.1,281.9h-122c-17,0-38.2,16.3-38.2,42.8,0,21.8,17.9,42,35.6,42H794.1V281.9Z" style="fill:#fff"/><path d="M955.2,432.6l-32.9-34.9,128.3-136.9v-5L922.3,119.6l32.9-34.9,163.2,174Z" style="fill:#fff"/></svg>