<?xml version="1.0" encoding="utf-8"?>
<!-- Generator: Adobe Illustrator 22.1.0, SVG Export Plug-In . SVG Version: 6.00 Build 0)  -->
<svg version="1.1" id="Layer_1" xmlns="http://www.w3.org/2000/svg" xmlns:xlink="http://www.w3.org/1999/xlink" x="0px" y="0px"
	 viewBox="0 0 1118.4 517.2" style="enable-background:new 0 0 1118.4 517.2;" xml:space="preserve">
<style type="text/css">
	.st0{fill:#FFFFFF;}
</style>
<g>
	<path class="st0" d="M163.7,432.6L0,258.7l163.7-174l32.9,34.9L68.3,255.7v5l128.3,136.9L163.7,432.6z"/>
	<path class="st0" d="M329.8,517.2l-41.5-20.1L486.7,0l42.1,20.1L329.8,517.2z"/>
	<path class="st0" d="M856.9,418H669.1c-49.7,0-83.1-45.1-83.1-96.4c0-46.7,34-88.7,82.5-89.4h125.7v-32.7c0-35-13.1-46.7-45.8-46.7
		h-114V99.2h125.7c44.5,0,79.9,42.8,79.9,94.9l-0.5,172.4h17.4L856.9,418z M794.1,281.9h-122c-17,0-38.2,16.3-38.2,42.8
		c0,21.8,17.9,42,35.6,42h124.6L794.1,281.9L794.1,281.9z"/>
	<path class="st0" d="M955.2,432.6l-32.9-34.9l128.3-136.9v-5L922.3,119.6l32.9-34.9l163.2,174L955.2,432.6z"/>
</g>
</svg>
